<svg id="Layer_5" enable-background="new 0 0 64 64" height="512" viewBox="0 0 64 64" width="512" xmlns="http://www.w3.org/2000/svg"><path d="m14.804 25h-3.671l.053-.429c.967-7.737 7.577-13.571 15.374-13.571 1.702 0 3.368.287 4.966.829.504 1.326 1.344 2.487 2.425 3.37-5.088.963-8.951 5.436-8.951 10.801v11h23v-13.586l13.878-13.878c.724-.724 1.122-1.685 1.122-2.707 0-2.112-1.717-3.829-3.829-3.829-1.022 0-1.984.398-2.707 1.122l-7.814 7.814c-.977.977-2.179 1.711-3.483 2.154 1.144-1.384 1.833-3.158 1.833-5.09 0-4.411-3.589-8-8-8-3.213 0-5.983 1.909-7.254 4.648-1.695-.421-3.437-.648-5.198-.648-11.09 0-20.285 8.322-21.389 19.357l-.064.643h-3.899l6.804 10.887zm24.953-8 1.177 7.651-1.934 1.935-1.935-1.935 1.178-7.651zm10.307-3.65 7.814-7.814c.346-.346.805-.536 1.293-.536 1.009 0 1.829.82 1.829 1.829 0 .488-.19.947-.536 1.293l-14.464 14.464v12.414h-14v-12h-2v12h-3v-9c0-4.962 4.038-9 9-9h.219l-1.285 8.349 4.066 4.065 4.065-4.065-1.322-8.593 2.098-.294c2.341-.335 4.551-1.44 6.223-3.112zm-11.064-10.35c3.309 0 6 2.691 6 6s-2.691 6-6 6-6-2.691-6-6 2.691-6 6-6zm-32.095 24 .245-2.444c1-10.009 9.34-17.556 19.398-17.556 1.554 0 3.092.194 4.589.556-.086.469-.137.95-.137 1.444 0 .197.016.39.03.584-1.454-.384-2.95-.584-4.47-.584-8.804 0-16.267 6.587-17.358 15.323l-.335 2.677h2.329l-3.196 5.113-3.196-5.113z"/><path d="m50 51h-2v-12h-18v12h-4v-12h-18v12h-2v2h2 18 4 18 4v-2.234l7.056 4.234-7.056 4.234v-2.234h-43v2h41v3.766l12.944-7.766-12.944-7.766zm-34-10h2v2h-2zm2 10h-2v-2h2zm2 0v-4h-6v4h-4v-10h4v4h6v-4h4v10zm18-10h2v2h-2zm2 10h-2v-2h2zm2 0v-4h-6v4h-4v-10h4v4h6v-4h4v10z"/><path d="m5 57h2v2h-2z"/><path d="m1 57h2v2h-2z"/></svg>